<svg xmlns="http://www.w3.org/2000/svg" fill="currentColor" viewBox="0 0 24 24">
  <path d="M12 .5C5.65.5.5 5.65.5 12c0 5.1 3.3 9.4 7.9 10.9.6.1.8-.3.8-.6v-2.1c-3.2.7-3.9-1.5-3.9-1.5-.5-1.2-1.2-1.6-1.2-1.6-1-.7.1-.7.1-.7 1.1.1 1.6 1.2 1.6 1.2 1 .1.8 2.4 3.3 1.8.1-.7.4-1.2.7-1.5-2.6-.3-5.4-1.3-5.4-5.8 0-1.3.5-2.3 1.2-3.1-.1-.3-.5-1.6.1-3.3 0 0 1-.3 3.3 1.2.9-.2 1.9-.3 2.9-.3s2 .1 2.9.3c2.3-1.5 3.3-1.2 3.3-1.2.6 1.7.2 3 .1 3.3.7.8 1.2 1.8 1.2 3.1 0 4.6-2.8 5.5-5.5 5.8.4.3.8 1 .8 2v3c0 .3.2.7.8.6 4.7-1.5 7.9-5.8 7.9-10.9C23.5 5.65 18.35.5 12 .5z"></path>
</svg>
