<svg xmlns="http://www.w3.org/2000/svg" fill="currentColor" viewBox="0 0 24 24">
  <path d="M19 0h-14c-2.75 0-5 2.25-5 5v14c0 2.75 2.25 5 5 5h14c2.75 0 5-2.25 5-5v-14c0-2.75-2.25-5-5-5zm-11.75 20.5h-2.75v-10.5h2.75v10.5zm-1.375-12.125c-.875 0-1.625-.75-1.625-1.625s.75-1.625 1.625-1.625 1.625.75 1.625 1.625-.75 1.625-1.625 1.625zm14.125 12.125h-2.75v-5.625c0-1.35-.025-3.075-1.875-3.075-1.875 0-2.175 1.475-2.175 2.975v5.725h-2.75v-10.5h2.625v1.425h.035c.375-.7 1.3-1.425 2.675-1.425 2.85 0 3.375 1.875 3.375 4.3v6.2z"></path>
</svg>
